# xmcd
#
# Track frame offsets:
#	150
#	15070
#	32388
#	48117
#	62986
#	79410
#	100412
#	116373
#	138354
#	155122
#	170345
#	185523
#	204941
#	225904
#
# Disc length: 3205 seconds
#
# Revision: 1
# Processed by: cddbd v1.5.2PL0 Copyright (c) Steve Scherf et al.
# Submitted via: audiograbber 1.83.01
#
DISCID=a50c830e
DTITLE=JonesTM - HC200715
DYEAR=2007
DGENRE=Top 40
TTITLE0=Donovan Chapman - All I Need
TTITLE1=Tracy Byrd - Better Places Than This
TTITLE2=Pam Tillis - Band In The Window [Album Version]
TTITLE3=Jack Ingram - Measure Of A Man [Album Version]
TTITLE4=Mario - How Do I Breathe [Main]
TTITLE5=John Legend - PDA (We Just Don't Care)
TTITLE6=Simply Red - So Not Over You [Radio Edit]
TTITLE7=Robin Thicke - Can U Believe [Album Version]
TTITLE8=J Moss Feat. Anthony Hamilton - I'm Not Perfect [Radio Edit]
TTITLE9=Marcus H. Mitchell Feat. Jeff Lorber - Saturday Night [Electric Guitar 
TTITLE9=Version]
TTITLE10=Marcus H. Mitchell Feat. Jeff Lorber - Saturday Night [Nylon Guitar Ve
TTITLE10=rsion]
TTITLE11=Michael Lington Feat. Dave Koz - Tell Me All About It [Album Version]
TTITLE12=Joe Sample and Randy Crawford - Rio De Janeiro Blue [Radio Edit]
TTITLE13=Stixbones - Double Jointed [Album Version]
EXTD=
EXTT0=
EXTT1=
EXTT2=
EXTT3=
EXTT4=
EXTT5=
EXTT6=
EXTT7=
EXTT8=
EXTT9=
EXTT10=
EXTT11=
EXTT12=
EXTT13=
PLAYORDER=
